
<svg width="240" height="60" viewBox="0 0 240 60" fill="none" xmlns="http://www.w3.org/2000/svg">
  <!-- Luxury watch icon -->
  <circle cx="30" cy="30" r="26" stroke="url(#goldGradient)" stroke-width="2.5" fill="none" />
  <circle cx="30" cy="30" r="23" stroke="url(#goldGradient)" stroke-width="1" fill="none" />
  <line x1="30" y1="14" x2="30" y2="16" stroke="url(#goldGradient)" stroke-width="1.5" stroke-linecap="round" />
  <line x1="30" y1="44" x2="30" y2="46" stroke="url(#goldGradient)" stroke-width="1.5" stroke-linecap="round" />
  <line x1="14" y1="30" x2="16" y2="30" stroke="url(#goldGradient)" stroke-width="1.5" stroke-linecap="round" />
  <line x1="44" y1="30" x2="46" y2="30" stroke="url(#goldGradient)" stroke-width="1.5" stroke-linecap="round" />
  <line x1="30" y1="30" x2="30" y2="18" stroke="url(#goldGradient)" stroke-width="1.5" stroke-linecap="round" />
  <line x1="30" y1="30" x2="38" y2="30" stroke="url(#goldGradient)" stroke-width="1.5" stroke-linecap="round" />
  <circle cx="30" cy="30" r="2" fill="url(#goldGradient)" />
  
  <!-- ChronoMarket text -->
  <path d="M72 25.4C72 23.2 72.4 21.3 73.2 19.7C74 18.1 75.1 16.8 76.5 16C77.9 15.1 79.6 14.7 81.5 14.7C83.1 14.7 84.6 15.1 85.8 15.8C87 16.5 87.9 17.4 88.5 18.6V14.9H92.9V36H88.5V32.2C87.9 33.4 87 34.4 85.8 35.1C84.6 35.8 83.1 36.2 81.5 36.2C79.6 36.2 77.9 35.8 76.5 34.9C75.1 34 74 32.7 73.2 31.1C72.4 29.5 72 27.6 72 25.4ZM88.5 25.5C88.5 24 88.2 22.8 87.7 21.8C87.2 20.8 86.5 20 85.6 19.5C84.7 19 83.7 18.7 82.7 18.7C81.7 18.7 80.7 19 79.8 19.5C78.9 20 78.2 20.8 77.7 21.8C77.2 22.8 76.9 24 76.9 25.5C76.9 27 77.2 28.2 77.7 29.2C78.2 30.2 78.9 31 79.8 31.5C80.7 32 81.7 32.3 82.7 32.3C83.7 32.3 84.7 32 85.6 31.5C86.5 31 87.2 30.2 87.7 29.2C88.2 28.2 88.5 27 88.5 25.5Z" fill="url(#goldGradient)"/>
  <path d="M100.6 18.9V29.7C100.6 30.5 100.8 31.1 101.1 31.5C101.5 31.8 102.1 32 103 32H105.3V36H102.3C100.4 36 98.9 35.5 97.9 34.6C96.9 33.7 96.4 32.2 96.4 30.2V18.9H94.1V14.9H96.4V10.1H100.6V14.9H105.3V18.9H100.6Z" fill="url(#goldGradient)"/>
  <path d="M111.4 12.2C110.5 12.2 109.8 11.9 109.2 11.4C108.6 10.9 108.3 10.2 108.3 9.4C108.3 8.6 108.6 7.9 109.2 7.4C109.8 6.9 110.5 6.6 111.4 6.6C112.2 6.6 112.9 6.9 113.5 7.4C114.1 7.9 114.4 8.6 114.4 9.4C114.4 10.2 114.1 10.9 113.5 11.4C112.9 11.9 112.2 12.2 111.4 12.2ZM109.3 36V14.9H113.5V36H109.3Z" fill="url(#goldGradient)"/>
  <path d="M126 14.7C127.9 14.7 129.6 15.1 131 15.9C132.4 16.8 133.5 18 134.3 19.6C135.1 21.2 135.5 23.1 135.5 25.4C135.5 27.7 135.1 29.6 134.3 31.2C133.5 32.8 132.4 34 131 34.9C129.6 35.8 127.9 36.2 126 36.2C124.4 36.2 123 35.8 121.8 35.1C120.6 34.4 119.7 33.4 119 32.2V44.8H114.8V14.9H119V18.6C119.7 17.4 120.6 16.5 121.8 15.8C123 15.1 124.4 14.7 126 14.7ZM125.3 32.3C126.3 32.3 127.3 32 128.2 31.5C129.1 31 129.8 30.2 130.3 29.2C130.8 28.2 131.1 27 131.1 25.5C131.1 24 130.8 22.7 130.3 21.7C129.8 20.7 129.1 20 128.2 19.5C127.3 19 126.3 18.7 125.3 18.7C124.3 18.7 123.3 19 122.4 19.5C121.5 20 120.8 20.7 120.3 21.7C119.8 22.7 119.5 24 119.5 25.5C119.5 27 119.8 28.2 120.3 29.2C120.8 30.2 121.5 31 122.4 31.5C123.3 32 124.3 32.3 125.3 32.3Z" fill="url(#goldGradient)"/>
  <path d="M152.3 14.9L145 36H140.6L133.3 14.9H137.7L142.8 30.7L148 14.9H152.3Z" fill="url(#goldGradient)"/>
  <path d="M166.3 25.1C166.3 25.7 166.3 26.2 166.2 26.6H152.8C152.9 28.3 153.6 29.6 154.7 30.6C155.8 31.6 157.2 32.1 158.8 32.1C161.1 32.1 162.8 31.1 163.8 29.2H165.9C165.2 31 164.1 32.4 162.6 33.5C161.1 34.6 159.2 35.2 157 35.2C155.2 35.2 153.6 34.8 152.2 34.1C150.8 33.4 149.7 32.4 148.9 31.1C148.1 29.8 147.7 28.2 147.7 26.4C147.7 24.6 148.1 23 148.9 21.7C149.7 20.4 150.8 19.4 152.2 18.7C153.6 18 155.2 17.6 157 17.6C158.8 17.6 160.4 18 161.7 18.7C163.1 19.4 164.1 20.4 164.9 21.6C165.8 22.8 166.3 23.9 166.3 25.1ZM161.2 23.1C161.2 22.2 161 21.4 160.6 20.7C160.2 20 159.5 19.5 158.7 19.1C157.9 18.7 157 18.5 156 18.5C154.4 18.5 153.1 19 152 20C150.9 21 150.3 22.3 150.1 23.9H161.2V23.1Z" fill="url(#goldGradient)"/>
  <path d="M173.5 18.9V29.7C173.5 30.5 173.7 31.1 174 31.5C174.4 31.8 175 32 175.9 32H178.2V36H175.2C173.3 36 171.8 35.5 170.8 34.6C169.8 33.7 169.3 32.2 169.3 30.2V18.9H167V14.9H169.3V10.1H173.5V14.9H178.2V18.9H173.5Z" fill="url(#goldGradient)"/>
  
  <!-- Premium badge -->
  <rect x="175" y="39" width="60" height="17" rx="8.5" fill="url(#premiumBadge)" />
  <text x="205" y="52" font-family="Arial" font-size="11" font-weight="bold" fill="white" text-anchor="middle">PREMIUM</text>
  
  <!-- Gradients -->
  <defs>
    <linearGradient id="goldGradient" x1="0%" y1="0%" x2="100%" y2="100%">
      <stop offset="0%" stop-color="#D4AF37" />
      <stop offset="50%" stop-color="#F7EF8A" />
      <stop offset="100%" stop-color="#D4AF37" />
    </linearGradient>
    <linearGradient id="premiumBadge" x1="0%" y1="0%" x2="100%" y2="100%">
      <stop offset="0%" stop-color="#007AFF" />
      <stop offset="100%" stop-color="#0050A0" />
    </linearGradient>
  </defs>
</svg>
